<svg xmlns="http://www.w3.org/2000/svg" width="1024" height="1024" viewBox="0 0 1024 1024">
<rect width="1024" height="1024" fill="#1E6F3F"/>

    <g transform="translate(10.0 14.0) rotate(-6 512.0 512.0) translate(322.0 227.0) scale(1.1875)">
      <rect x="0" y="0" width="320" height="480" rx="26" fill="rgba(0,0,0,0.20)"/>
    </g>

    <g transform="rotate(-6 512.0 512.0) translate(322.0 227.0) scale(1.1875)">
      <rect x="0" y="0" width="320" height="480" rx="26" fill="#FCFAF1" stroke="rgba(0,0,0,0.10)" stroke-width="3"/>
      <path d="M34 106 L61 34 L88 106" fill="none" stroke="#1E3A5F" stroke-width="14" stroke-linecap="round" stroke-linejoin="round"/>
      <line x1="46" y1="78" x2="76" y2="78" stroke="#1E3A5F" stroke-width="12" stroke-linecap="round"/>
      <path d="M160 86 L183 140 L179 298 L141 298 L137 140 Z" fill="#3D5E8F" stroke="#2C4568" stroke-width="3" stroke-linejoin="round"/>
      <rect x="155" y="114" width="10" height="176" fill="#A8BEDD"/>
      <rect x="104" y="296" width="112" height="26" rx="13" fill="#E4B94C" stroke="#8F6A16" stroke-width="4"/>
      <rect x="147" y="322" width="26" height="54" rx="5" fill="#7A5A1E"/>
      <line x1="147" y1="336" x2="173" y2="336" stroke="#5C4315" stroke-width="4"/>
      <line x1="147" y1="350" x2="173" y2="350" stroke="#5C4315" stroke-width="4"/>
      <line x1="147" y1="364" x2="173" y2="364" stroke="#5C4315" stroke-width="4"/>
      <circle cx="160" cy="392" r="19" fill="#E4B94C" stroke="#8F6A16" stroke-width="4"/>
      <circle cx="160" cy="392" r="6" fill="#8F6A16"/>
    </g>
</svg>
